<?xml version="1.0" encoding="utf-8"?>
<!-- Generator: Adobe Illustrator 22.0.0, SVG Export Plug-In . SVG Version: 6.00 Build 0)  -->
<svg version="1.1" id="Layer_1" xmlns="http://www.w3.org/2000/svg" xmlns:xlink="http://www.w3.org/1999/xlink" x="0px" y="0px"
	 viewBox="0 0 14.5 16.3" style="enable-background:new 0 0 14.5 16.3;" xml:space="preserve">
<style type="text/css">
	.st0{fill:#24292E;}
</style>
<title>github-icon</title>
<g id="f11bb3ee-5b85-44a5-a2a2-7e7f0c00b2dc">
	<g id="a0facc1f-7402-40bf-bee9-c60ee2d71ec8">
		<path class="st0" d="M5.2,16.3c0-0.2,0-1.1,0-1.3v-1.1c-0.3,0-0.6,0.1-0.9,0.1c-1.2,0.2-2.3-0.5-2.8-1.7c-0.2-0.6-0.6-1.1-1.1-1.4
			c-0.1-0.1-0.2-0.2-0.3-0.3C0,10.5,0,10.4,0.2,10.4c0.1,0,0.3,0,0.4,0c0.6,0.1,1.2,0.4,1.5,1c0.6,1.1,1.9,1.5,3,0.9c0,0,0,0,0,0
			c0.1,0,0.2-0.1,0.2-0.1c0.1-0.5,0.3-1,0.6-1.3c-0.5-0.1-1-0.2-1.5-0.3c-1.2-0.3-2.3-1-2.8-2.2C1.2,7.6,1,6.9,1,6.1
			C0.9,4.9,1.3,3.8,2,2.9c0-0.1,0-0.2,0-0.2C1.8,2,1.8,1.2,2,0.5C2.2,0,2.2-0.1,2.8,0.1C3.5,0.2,4.3,0.6,4.9,1
			C5,1.1,5.1,1.1,5.3,1.1c1.6-0.4,3.4-0.4,5,0c0.1,0,0.2,0,0.3-0.1c0.5-0.2,1-0.5,1.5-0.7C12.4,0.1,12.8,0,13.1,0
			c0.1,0,0.2,0.1,0.2,0.1c0.3,0.8,0.4,1.6,0.1,2.4c-0.1,0.2,0,0.3,0.1,0.5c0.4,0.4,0.6,1,0.8,1.5c0.2,0.8,0.2,1.6,0,2.4
			c-0.1,1.4-1,2.6-2.2,3.2c-0.4,0.2-0.8,0.3-1.2,0.5c-0.4,0.1-0.9,0.2-1.3,0.3c0.5,0.6,0.7,1.3,0.7,2c0,0.9,0,2.5,0,3.4L5.2,16.3z"
			/>
	</g>
</g>
</svg>
