<?xml version="1.0" encoding="utf-8"?>
<!-- Generator: Adobe Illustrator 22.0.0, SVG Export Plug-In . SVG Version: 6.00 Build 0)  -->
<svg version="1.1" id="Layer_1" xmlns="http://www.w3.org/2000/svg" xmlns:xlink="http://www.w3.org/1999/xlink" x="0px" y="0px"
	 viewBox="0 0 300 300" style="enable-background:new 0 0 300 300;" xml:space="preserve">
<style type="text/css">
	.st0{fill:#353635;}
	.st1{fill:#B2B2B2;}
	.st2{fill:#4DBA87;}
	.st3{fill:#455567;}
</style>
<g>
	<rect x="0" y="0.2" class="st0" width="300" height="300"/>
	<g>
		<g id="g10_32_" transform="matrix(1.3333333,0,0,-1.3333333,0,400)">
			<g id="g12_37_" transform="translate(178.0626,235.0086)">
				<path id="path14_37_" class="st1" d="M-64.5-4.8l24.3,42.2H-89"/>
			</g>
		</g>
		<g id="g10_31_" transform="matrix(1.3333333,0,0,-1.3333333,0,400)">
			<g id="g12_36_" transform="translate(178.0626,235.0086)">
				<path id="path14_36_" class="st2" d="M-40.1,37.4L-64.5-4.8l-24.3,42.2h-81.1l105.4-182.6L40.9,37.4H-40.1z"/>
			</g>
			<g id="g16_4_" transform="translate(178.0626,235.0086)">
				<path id="path18_4_" class="st3" d="M-40.1,37.4L-64.5-4.8l-24.3,42.2h-38.9l63.3-109.6L-1.2,37.4H-40.1z"/>
			</g>
		</g>
	</g>
	<g>
		<path class="st2" d="M372.3,221.6"/>
	</g>
	<g>
		<path class="st1" d="M204.5,239.3c0-7.1,1.2-13.5,3.7-19.3c2.5-5.7,5.9-10.6,10.1-14.7c4.3-4.1,9.2-7.2,14.9-9.4
			c5.7-2.2,11.7-3.3,18.1-3.3c5.1,0,9.6,0.5,13.5,1.5c4,1,7.4,2.1,10.2,3.3c3.3,1.4,6.1,3,8.5,4.7l-14,24.7c-1.4-1.1-3-2.1-4.7-3.1
			c-1.5-0.7-3.3-1.4-5.4-2.1c-2.1-0.7-4.5-1-7.1-1c-2.8,0-5.3,0.5-7.6,1.5c-2.3,1-4.3,2.3-6.1,4c-1.7,1.7-3.1,3.7-4.1,5.9
			c-1,2.3-1.5,4.7-1.5,7.3c0,2.6,0.5,5,1.5,7.3c1,2.3,2.4,4.2,4.2,5.9c1.8,1.7,3.9,3,6.3,4c2.4,1,5,1.5,7.9,1.5
			c2.8,0,5.4-0.4,7.6-1.1c2.2-0.7,4.1-1.5,5.6-2.4c1.8-1,3.3-2.1,4.7-3.5l14,24.7c-2.4,2-5.2,3.7-8.5,5.2c-2.8,1.2-6.3,2.4-10.3,3.5
			c-4,1.1-8.6,1.6-13.7,1.6c-6.9,0-13.3-1.1-19.2-3.4c-5.9-2.3-10.9-5.4-15.2-9.5c-4.3-4.1-7.6-9-10-14.7
			C205.7,252.6,204.5,246.3,204.5,239.3z M221.3,239.3c0-4.3,0.7-8.3,2.2-12c1.5-3.7,3.5-7,6.2-9.7c2.7-2.8,5.9-4.9,9.7-6.5
			c3.8-1.6,8.1-2.4,12.8-2.4c2.3,0,4.4,0.2,6.2,0.5c1.8,0.3,3.4,0.7,4.6,1.1c1.5,0.4,2.8,1,3.9,1.6l1.9-3.2
			c-1.4-0.6-2.9-1.2-4.5-1.7c-1.5-0.4-3.2-0.8-5.2-1.2c-2-0.4-4.2-0.5-6.8-0.5c-4.5,0-8.9,0.8-13,2.4c-4.1,1.6-7.8,3.9-10.9,6.9
			c-3.2,3-5.7,6.6-7.6,10.8c-1.9,4.2-2.9,8.9-2.9,14.1c0,5.2,0.9,10,2.7,14.1c1.8,4.2,4.3,7.8,7.5,10.7c3.2,3,6.9,5.3,11.2,6.9
			c4.3,1.6,8.8,2.4,13.6,2.4c2.7,0,5.1-0.2,7.2-0.7c2.1-0.4,4-0.9,5.5-1.5c1.7-0.6,3.2-1.3,4.5-2.1l-1.9-3.2c-1.2,0.8-2.5,1.5-4,2
			c-1.3,0.5-2.9,1-4.8,1.4c-1.9,0.4-4,0.6-6.5,0.6c-4.9,0-9.3-0.8-13.2-2.4c-3.9-1.6-7.2-3.8-9.9-6.5c-2.7-2.8-4.8-6-6.3-9.7
			S221.3,243.6,221.3,239.3z"/>
	</g>
</g>
</svg>
